<svg id="Layer_1" data-name="Layer 1" xmlns="http://www.w3.org/2000/svg" viewBox="0 0 238 281">
<defs><style>.cls-1{fill:none;}.cls-2{fill:rgba(124, 194, 246, 0.5);}</style></defs>
<path class="cls-1" d="M304,447.5H66v-281H304ZM96.55,303.23c-1.14-.3-1.85-.43-2.51-.68-3.44-1.25-6.84-2.61-10.32-3.74-.7-.23-1.66.38-2.5.61a20.53,20.53,0,0,0,1.32,2.33c.2.27.76.28,1.15.42,4,1.47,8,2.91,11.92,4.44,2.51,1,1.69,3.35,1.81,5.2,0,.33-1.72,1.08-2.67,1.12-5.75.2-11.5.18-17.25.44-1.07.05-3,1-3,1.64-.12,1.93,1.68,1.56,3,1.54q9.26-.15,18.5-.38c1.38,0,2.49.06,2.59,1.84.08,1.57,1,3.2-1.47,4-5.13,1.7-10.2,3.58-15.22,5.58-.88.35-1.38,1.67-2.06,2.54,1,.16,2.17.72,3,.43,4.89-1.63,9.76-3.35,14.53-5.29,2-.82,2.45-.16,2.77,1.62A240.32,240.32,0,0,0,112,370.42,164.92,164.92,0,0,0,134.26,411c1.21,1.6,2.05,1.68,3.54.38,9.86-8.61,19.66-17.26,27-28.31a3.65,3.65,0,0,1,2.61-1.37q19.24-.13,38.5,0a3.68,3.68,0,0,1,2.66,1.33c7.2,11,16.95,19.6,26.71,28.19,1.84,1.62,2.73,1.27,4.07-.52A168.75,168.75,0,0,0,263,365.8a228.48,228.48,0,0,0,10-38.35c.3-1.77,1.07-2.27,2.74-1.59,1.85.75,3.74,1.4,5.61,2.1,2.49.92,5,2,7.51,2.69.82.24,1.87-.28,2.82-.45-.57-.85-1.12-1.72-1.73-2.55-.12-.16-.47-.14-.7-.23-4.3-1.55-8.56-3.23-12.92-4.61-2.85-.9-1.76-2.79-1.65-4.59s1.28-2,2.75-2,3.16.09,4.75.11c4.33.07,8.66.2,13,.14.67,0,1.33-.9,2-1.39a11.09,11.09,0,0,0-1.79-1.71,3.86,3.86,0,0,0-1.72-.12c-5.33-.1-10.67-.24-16-.24-1.67,0-2.12-.57-2-2.22.18-3.18,1.42-5.18,4.71-6a58.23,58.23,0,0,0,8.65-3.18c.62-.27.8-1.53,1.19-2.33a6.65,6.65,0,0,0-2.36-.47,26.28,26.28,0,0,0-3.51,1.25c-2.3.81-4.61,1.59-6.66,2.29.92-21.17,2.17-42,2.61-62.88s.1-41.89.1-62.79H92.5C93.11,218.9,91.62,261,96.55,303.23Z" transform="translate(-66 -166.5)"/><path class="cls-2" d="M95.73,303.23C90.79,261,92.28,218.9,91.67,176.7H279.54c0,20.9.35,41.85-.09,62.79s-1.7,41.71-2.61,62.88c2-.7,4.35-1.48,6.65-2.29a25.92,25.92,0,0,1,3.52-1.25,6.6,6.6,0,0,1,2.35.47c-.38.8-.57,2.06-1.19,2.33a58.23,58.23,0,0,1-8.65,3.18c-3.28.84-4.53,2.84-4.71,6-.1,1.65.35,2.21,2,2.22,5.34,0,10.67.14,16,.24a3.86,3.86,0,0,1,1.72.12,11.09,11.09,0,0,1,1.79,1.71c-.67.49-1.32,1.38-2,1.39-4.34.06-8.67-.07-13-.14-1.58,0-3.17,0-4.75-.11s-2.64.05-2.75,2-1.2,3.69,1.65,4.59c4.36,1.38,8.62,3.06,12.92,4.61.24.09.58.07.7.23.61.83,1.16,1.7,1.73,2.55-1,.17-2,.69-2.82.45-2.55-.74-5-1.77-7.51-2.69-1.87-.7-3.76-1.35-5.61-2.1-1.67-.68-2.44-.18-2.74,1.59a228.48,228.48,0,0,1-10,38.35,168.75,168.75,0,0,1-23.65,44.88c-1.34,1.79-2.23,2.14-4.07.52-9.76-8.59-19.5-17.17-26.71-28.19a3.68,3.68,0,0,0-2.66-1.33q-19.24-.12-38.5,0a3.65,3.65,0,0,0-2.61,1.37c-7.3,11.05-17.1,19.7-27,28.31-1.49,1.3-2.32,1.22-3.54-.38a164.56,164.56,0,0,1-22.23-40.58,239.53,239.53,0,0,1-11.91-43.51c-.32-1.78-.76-2.44-2.77-1.62-4.77,1.94-9.64,3.66-14.53,5.29-.86.29-2-.27-3-.43.68-.87,1.18-2.19,2.06-2.54,5-2,10.09-3.88,15.22-5.58,2.49-.82,1.55-2.45,1.47-4-.1-1.78-1.2-1.88-2.59-1.84q-9.24.22-18.49.38c-1.28,0-3.08.39-3-1.54,0-.64,1.93-1.59,3-1.64,5.74-.26,11.49-.24,17.24-.44,1,0,2.7-.79,2.68-1.12-.13-1.85.69-4.23-1.82-5.2-4-1.53-8-3-11.92-4.44-.39-.14-1-.15-1.15-.42a22.18,22.18,0,0,1-1.32-2.33c.84-.23,1.81-.84,2.5-.61,3.48,1.13,6.88,2.49,10.32,3.74C93.88,302.8,94.58,302.93,95.73,303.23ZM207,316.66l-.27.69C198,316.79,193,326,194,332.14c.85,5.45,3.74,9.68,7.38,13.57,1.06,1.14,1.94.78,3.06.13,7.32-4.28,14.64-8.54,22-12.71,1.49-.84,1.83-1.64.61-2.83-3.44-3.33-6.65-7-10.5-9.79C213.82,318.57,210.2,317.9,207,316.66Zm-32.59,20c.06-8.66-2.78-13.53-7.75-15.46-5.63-2.17-10.51-.83-15.21,4.23-3.57,3.84-5.78,8.48-7.53,13.35a2.3,2.3,0,0,0,.87,2.06c8.06,2.55,16.17,5,24.26,7.45,1.32.4,2.15,0,2.5-1.23C172.73,343,173.83,338.82,174.41,336.7Zm-26.79,40.83L126.23,370a60.55,60.55,0,0,0,10.53,22.9C140.48,387.64,143.85,382.87,147.62,377.53Zm76,.3L234.38,393c4.88-7.33,8.7-14.33,10.3-23.09Zm-47.19-75.61c-.21,3.38,2.08,7.79,5,8.48s3.05,2.41,2.92,4.69a46.64,46.64,0,0,0,0,4.73,5.56,5.56,0,0,1-1.57,4.76c-.52.49-.38,1.68-.54,2.56l4.71.4c0-.94.47-2.25,0-2.76-1.49-1.68-1.62-3.54-1.56-5.57s.06-3.83,0-5.74a2.31,2.31,0,0,1,2.06-2.77c3.61-.93,6.85-5.57,6.55-9.3-1.87,4.26-3.49,8.4-8.71,8.75C179.76,310.81,178.22,306.59,176.42,302.22Z" transform="translate(-66 -166.5)"/><path class="cls-1" d="M207.83,316.66c3.2,1.24,6.82,1.91,9.52,3.85,3.85,2.77,7.06,6.46,10.5,9.79,1.22,1.19.88,2-.61,2.83-7.38,4.17-14.7,8.43-22,12.71-1.12.65-2,1-3.07-.13-3.63-3.89-6.52-8.12-7.38-13.57-1-6.15,4.09-15.35,12.79-14.79Zm-10.92,14.48c0,2.3,1.2,3.72,3.11,3.73,2.38,0,4.56-2.64,4.58-5.62,0-2.41-1.27-3.94-3.26-3.87C198.94,325.48,196.88,328.15,196.91,331.14Z" transform="translate(-66 -166.5)"/><path class="cls-1" d="M175.24,336.7c-.58,2.12-1.68,6.27-2.86,10.4-.35,1.24-1.18,1.63-2.5,1.23-8.09-2.49-16.2-4.9-24.27-7.45a2.31,2.31,0,0,1-.86-2.06c1.75-4.87,4-9.51,7.53-13.35,4.7-5.06,9.58-6.4,15.21-4.23C172.45,323.17,175.3,328,175.24,336.7Zm-1.87-5.48c0-2.83-2.22-5.62-4.55-5.68-1.91-.05-3.32,1.58-3.32,3.84,0,2.8,2.26,5.64,4.55,5.71C171.9,335.15,173.36,333.45,173.37,331.22Z" transform="translate(-66 -166.5)"/><path class="cls-1" d="M148.45,377.53c-3.77,5.34-7.14,10.11-10.86,15.4A60.55,60.55,0,0,1,127.06,370Z" transform="translate(-66 -166.5)"/><path class="cls-1" d="M224.44,377.83l21.07-7.93c-1.6,8.76-5.42,15.76-10.3,23.09Z" transform="translate(-66 -166.5)"/><path class="cls-1" d="M177.25,302.22c1.8,4.37,3.33,8.59,8.85,8.23,5.22-.35,6.84-4.49,8.71-8.75.3,3.73-2.95,8.37-6.55,9.3a2.31,2.31,0,0,0-2.06,2.77c.06,1.91.07,3.83,0,5.74s.06,3.89,1.55,5.57c.46.51,0,1.82,0,2.76l-4.72-.4c.17-.88,0-2.07.55-2.56a5.56,5.56,0,0,0,1.57-4.76,43.9,43.9,0,0,1,0-4.73c.13-2.28.08-4-2.92-4.69S177,305.6,177.25,302.22Z" transform="translate(-66 -166.5)"/><path d="M196.91,331.14c0-3,2-5.66,4.43-5.76,2-.07,3.29,1.46,3.26,3.87,0,3-2.2,5.64-4.58,5.62C198.11,334.86,196.93,333.44,196.91,331.14Z" transform="translate(-66 -166.5)"/><path d="M173.37,331.22c0,2.23-1.47,3.93-3.32,3.87-2.29-.07-4.56-2.91-4.55-5.71,0-2.26,1.41-3.89,3.32-3.84C171.15,325.6,173.37,328.39,173.37,331.22Z" transform="translate(-66 -166.5)"/></svg>