<?xml version="1.0" encoding="UTF-8" standalone="no"?>
<svg
   xmlns:dc="http://purl.org/dc/elements/1.1/"
   xmlns:cc="http://creativecommons.org/ns#"
   xmlns:rdf="http://www.w3.org/1999/02/22-rdf-syntax-ns#"
   xmlns:svg="http://www.w3.org/2000/svg"
   xmlns="http://www.w3.org/2000/svg"
   xmlns:sodipodi="http://sodipodi.sourceforge.net/DTD/sodipodi-0.dtd"
   xmlns:inkscape="http://www.inkscape.org/namespaces/inkscape"
   version="1.1"
   id="Layer_1"
   x="0px"
   y="0px"
   viewBox="0 0 168.3 193.8"
   style="enable-background:new 0 0 168.3 193.8;"
   xml:space="preserve"
   sodipodi:docname="uniswap-blu.svg"
   inkscape:version="1.0.2 (e86c8708, 2021-01-15)"><metadata
   id="metadata3470"><rdf:RDF><cc:Work
       rdf:about=""><dc:format>image/svg+xml</dc:format><dc:type
         rdf:resource="http://purl.org/dc/dcmitype/StillImage" /><dc:title></dc:title></cc:Work></rdf:RDF></metadata><defs
   id="defs3468" /><sodipodi:namedview
   pagecolor="#ffffff"
   bordercolor="#666666"
   borderopacity="1"
   objecttolerance="10"
   gridtolerance="10"
   guidetolerance="10"
   inkscape:pageopacity="0"
   inkscape:pageshadow="2"
   inkscape:window-width="1090"
   inkscape:window-height="703"
   id="namedview3466"
   showgrid="false"
   inkscape:zoom="3.2249741"
   inkscape:cx="67.715761"
   inkscape:cy="65.892001"
   inkscape:window-x="0"
   inkscape:window-y="25"
   inkscape:window-maximized="0"
   inkscape:current-layer="Layer_1" />
<style
   type="text/css"
   id="style3445">
	.st0{fill:#FF007A;}
	.st1{fill-rule:evenodd;clip-rule:evenodd;fill:#FF007A;}
</style>
<path
   class="st0"
   d="m 66.000001,44.099999 c -2.100001,-0.3 -2.200001,-0.4 -1.200001,-0.5 1.9,-0.299998 6.300001,0.1 9.400001,0.800001 C 81.4,46.1 87.9,50.5 94.8,58.2 l 1.800001,2.099999 2.599999,-0.4 c 11.1,-1.799999 22.5,-0.399998 32,4.000002 2.6,1.199999 6.7,3.6 7.2,4.199998 0.2,0.2 0.5,1.500001 0.7,2.800001 0.7,4.700001 0.4,8.2 -1.1,10.9 -0.8,1.5 -0.8,1.900001 -0.3,3.199999 C 138.1,86 139.3,86.7 140.4,86.7 c 2.4,0 4.9,-3.8 6.1,-9.1 l 0.5,-2.099999 0.9,0.999998 C 153,82.2 157,90.1 157.6,95.7 l 0.2,1.499999 L 156.9,95.9 c -1.5,-2.300001 -2.9,-3.799999 -4.8,-5.1 -3.4,-2.299999 -7,-2.999999 -16.5,-3.5 C 127,86.8 122.1,86.1 117.3,84.500001 109.1,81.8 104.9,78.3 95.2,65.4 90.900001,59.700001 88.200001,56.599999 85.500001,54 79.6,48.299999 73.7,45.3 66.000001,44.099999 Z"
   id="path3447"
   style="stroke-width:1;fill:#5e65c5;fill-opacity:1" />
<path
   class="st0"
   d="m 140.5,56.8 c 0.2,-3.8 0.7,-6.3 1.8,-8.600001 0.4,-0.899998 0.8,-1.699998 0.9,-1.699998 0.1,0 -0.1,0.7 -0.4,1.499998 C 142,50.2 141.9,53.3 142.4,56.8 c 0.7,4.5 1,5.1 5.8,10 2.2,2.3 4.8,5.200001 5.8,6.4 l 1.7,2.200001 L 154,73.8 c -2.1,-1.999999 -6.9,-5.799999 -8,-6.299999 -0.7,-0.4 -0.8,-0.4 -1.3,0.1 -0.4,0.4 -0.5,0.999998 -0.5,3.9 -0.1,4.5 -0.7,7.299999 -2.2,10.199999 -0.8,1.5 -0.9,1.2 -0.2,-0.500001 C 142.3,79.900001 142.4,79.3 142.4,75 c 0,-8.7 -1,-10.800001 -7.1,-14.300001 C 133.8,59.800001 131.2,58.5 129.7,57.8 c -1.6,-0.7 -2.8,-1.300001 -2.7,-1.300001 0.2,-0.2 6.1,1.500001 8.4,2.500002 3.5,1.399998 4.1,1.499998 4.5,1.399998 0.3,-0.3 0.5,-1.099998 0.6,-3.599999 z"
   id="path3449"
   style="stroke-width:1;fill:#5e65c5;fill-opacity:1" />
<path
   class="st0"
   d="M 70.1,71.700001 C 65.9,65.9 63.2,56.9 63.8,50.2 l 0.200001,-2.100001 0.999999,0.2 C 66.8,48.6 69.9,49.8 71.4,50.700001 75.4,53.1 77.2,56.399999 78.900001,64.599999 79.4,67 80.1,69.8 80.400001,70.7 c 0.5,1.499999 2.399999,5.000001 4,7.2 1.1,1.600001 0.399999,2.400001 -2.100001,2.200001 -3.8,-0.4 -8.9,-3.9 -12.2,-8.4 z"
   id="path3451"
   style="stroke-width:1;fill:#5e65c5;fill-opacity:1" />
<path
   class="st0"
   d="m 135.4,115.2 c -19.8,-8 -26.8,-14.9 -26.8,-26.599999 0,-1.700001 0.1,-3.100002 0.1,-3.100002 0.1,0 0.8,0.600001 1.7,1.300001 4,3.2 8.5,4.6 21,6.399999 C 138.7,94.3 142.9,95.1 146.7,96.400001 158.8,100.4 166.3,108.6 168.1,119.7 c 0.5,3.2 0.2,9.3 -0.6,12.5 -0.7,2.5 -2.7,7.1 -3.2,7.2 -0.1,0 -0.3,-0.5 -0.3,-1.3 -0.2,-4.2 -2.3,-8.2 -5.8,-11.3 -4.2,-3.6 -9.6,-6.3 -22.8,-11.6 z"
   id="path3453"
   style="stroke-width:1;fill:#5e65c5;fill-opacity:1" />
<path
   class="st0"
   d="m 121.4,118.5 c -0.2,-1.5 -0.7,-3.4 -1,-4.2 l -0.5,-1.5 0.9,1.1 c 1.3,1.5 2.3,3.3 3.2,5.8 0.7,1.9 0.7,2.5 0.7,5.6 0,3 -0.1,3.7 -0.7,5.4 -1,2.7 -2.2,4.6 -4.2,6.7 -3.6,3.7 -8.3,5.7 -15,6.6 -1.2,0.1 -4.6,0.4 -7.6,0.6 -7.499999,0.4 -12.5,1.2 -16.999999,2.8 C 79.6,147.6 79,147.8 78.900001,147.7 78.7,147.5 81.8,145.7 84.3,144.5 c 3.500001,-1.7 7.1,-2.6 15.000001,-4 C 103.2,139.9 107.2,139.1 108.2,138.7 c 9.9,-3.1 14.8,-10.8 13.2,-20.2 z"
   id="path3455"
   style="stroke-width:1;fill:#5e65c5;fill-opacity:1" />
<path
   class="st0"
   d="m 130.5,134.6 c -2.6,-5.7 -3.2,-11.1 -1.8,-16.2 0.2,-0.5 0.4,-1 0.6,-1 0.2,0 0.8,0.3 1.4,0.7 1.2,0.8 3.7,2.2 10.1,5.7 8.1,4.4 12.7,7.8 15.9,11.7 2.8,3.4 4.5,7.3 5.3,12.1 0.5,2.7 0.2,9.2 -0.5,11.9 -2.2,8.5 -7.2,15.3 -14.5,19.2 -1.1,0.6 -2,1 -2.1,1 -0.1,0 0.3,-1 0.9,-2.2 2.4,-5.1 2.7,-10 0.9,-15.5 -1.1,-3.4 -3.4,-7.5 -8,-14.4 -5.5,-8 -6.8,-10.1 -8.2,-13 z"
   id="path3457"
   style="stroke-width:1;fill:#5e65c5;fill-opacity:1" />
<path
   class="st0"
   d="M 56.000001,165.2 C 63.4,159 72.5,154.6 80.900001,153.2 c 3.599999,-0.6 9.599999,-0.4 12.9,0.5 5.3,1.4 10.099999,4.4 12.599999,8.1 2.4,3.6 3.5,6.7 4.6,13.6 0.4,2.7 0.9,5.5 1,6.1 0.8,3.6 2.4,6.4 4.4,7.9 3.1,2.3 8.5,2.4 13.8,0.4 0.9,-0.3 1.7,-0.6 1.7,-0.5 0.2,0.2 -2.5,2 -4.3,2.9 -2.5,1.3 -4.5,1.7 -7.2,1.7 -4.8,0 -8.9,-2.5 -12.2,-7.5 -0.7,-1 -2.1,-3.9 -3.3,-6.6 -3.5,-8.1 -5.3,-10.5 -9.399999,-13.2 -3.600001,-2.3 -8.2,-2.8 -11.7,-1.1 -4.600001,2.2 -5.8,8.1 -2.600001,11.7 1.3,1.5 3.700001,2.7 5.700001,3 3.7,0.5 6.9,-2.4 6.9,-6.1 0,-2.4 -0.9,-3.8 -3.300001,-4.9 -3.199999,-1.4 -6.699999,0.2 -6.6,3.3 0,1.3 0.6,2.1 1.900001,2.7 0.8,0.4 0.8,0.4 0.2,0.3 -2.9,-0.6 -3.6,-4.2 -1.300001,-6.5 2.800001,-2.8 8.7,-1.6 10.7,2.3 0.800001,1.6 0.9,4.8 0.2,6.8 -1.7,4.4 -6.499999,6.7 -11.399999,5.4 -3.3,-0.9 -4.7,-1.8 -8.7,-5.9 C 68.5,170.4 65.8,169 55.8,167.5 l -1.9,-0.3 z"
   id="path3459"
   style="stroke-width:1;fill:#5e65c5;fill-opacity:1" />
<path
   class="st1"
   d="M 3.4,4.3000001 C 26.7,32.6 62.600001,76.599999 64.400001,79 65.9,80.999999 65.300001,82.9 62.8,84.300001 61.4,85.099999 58.5,85.9 57.100001,85.9 55.500001,85.9 53.6,85.099999 52.3,83.800001 51.4,82.9 47.500001,77.199999 38.7,63.500001 32.000001,53 26.3,44.299999 26.200001,44.199999 c -0.400001,-0.2 -0.400001,-0.2 11.8,21.600001 7.699998,13.700001 10.2,18.600001 10.2,19.199999 0,1.300001 -0.400001,2.000001 -2,3.8 C 43.500001,91.8 42.3,95.2 41.4,102.3 c -0.999999,7.9 -3.700001,13.5 -11.399999,23 -4.5,5.6 -5.200001,6.6 -6.300002,8.9 -1.399999,2.8 -1.799999,4.4 -2,8 C 21.500001,146 21.9,148.4 23,152 c 1.000001,3.2 2.100001,5.3 4.8,9.4 2.3,3.6 3.700001,6.3 3.700001,7.3 0,0.8 0.199998,0.8 3.8,0 8.599999,-2 15.699999,-5.4 19.6,-9.6 2.4,-2.6 2.999999,-4 2.999999,-7.6 0,-2.3 -0.1,-2.8 -0.7,-4.2 -0.999999,-2.2 -2.9,-4 -6.999999,-6.8 C 44.8,136.8 42.5,133.8 41.9,129.8 c -0.5,-3.4 0.100001,-5.7 3.1,-12 3.1,-6.5 3.900001,-9.2 4.4,-15.8 0.299999,-4.200001 0.800001,-5.899999 2,-7.2 1.3,-1.400001 2.4,-1.900001 5.500001,-2.299999 5.1,-0.700001 8.4,-2.000001 10.999999,-4.5 2.300001,-2.100001 3.3,-4.2 3.400001,-7.300002 l 0.1,-2.299999 -1.3,-1.400001 C 65.4,71.600001 0.30000001,0 0,0 -0.1,0 1.5,1.9 3.4,4.3000001 Z M 34.1,146.5 c 1.1,-1.9 0.499999,-4.3 -1.3,-5.5 -1.699999,-1.1 -4.3,-0.6 -4.3,0.9 0,0.4 0.2,0.8 0.800001,1 0.9,0.5 0.999999,1 0.299999,2.1 -0.7,1.1 -0.7,2.1 0.2,2.8 1.4,1.1 3.300001,0.5 4.3,-1.3 z"
   id="path3461"
   style="stroke-width:1;fill:#5e65c5;fill-opacity:1" />
<path
   class="st1"
   d="m 74.600001,93.9 c -2.4,0.7 -4.700001,3.299999 -5.400001,5.9 -0.4,1.6 -0.2,4.5 0.5,5.4 1.1,1.4 2.1,1.8 4.900001,1.8 5.499999,0 10.199999,-2.4 10.7,-5.3 0.5,-2.4 -1.6,-5.699999 -4.500001,-7.2 -1.499999,-0.800001 -4.599999,-1.100001 -6.199999,-0.6 z M 81,98.9 C 81.8,97.699999 81.500001,96.400001 80.000001,95.5 77.300001,93.799999 73.2,95.2 73.2,97.799999 73.2,99.1 75.300001,100.5 77.300001,100.5 c 1.3,0 3.1,-0.8 3.699999,-1.6 z"
   id="path3463"
   style="stroke-width:1;fill:#5e65c5;fill-opacity:1" />
</svg>
